# xmcd
#
# Track frame offsets:
#	150
#	18153
#	26570
#	43055
#	54520
#	79665
#	100052
#	118692
#	130590
#	152640
#
# Disc length: 2220 seconds
#
# Revision: 11
# Processed by: cddbd v1.5.2PL0 Copyright (c) Steve Scherf et al.
# Submitted via: Jack! The Knife 18 Bulletproof
#
DISCID=7008aa0a
DTITLE=Slayer - Divine Intervention
DYEAR=1994
DGENRE=Metal
TTITLE0=Killing Fields
TTITLE1=Sex. Murder. Art.
TTITLE2=Fictional Reality
TTITLE3=Dittohead
TTITLE4=Divine Intervention
TTITLE5=Circle Of Beliefs
TTITLE6=SS-3
TTITLE7=Serenity In Murder
TTITLE8=213
TTITLE9=Mind Control
EXTD=Slayer
EXTT0=Kerry King
EXTT1=Kerry King
EXTT2=Kerry King
EXTT3=Kerry King
EXTT4=Hanneman, King
EXTT5=Kerry King
EXTT6=Hanneman, King
EXTT7=Hanneman, King
EXTT8=Kerry King
EXTT9=Hanneman, King
PLAYORDER=
